# AST/ASF file generated using VICON BodyLanguage
# -----------------------------------------------
:version 1.10
:name VICON
:units
  mass 1.0
  length 0.45
  angle deg
:documentation
   .ast/.asf automatically generated from VICON data using
   VICON BodyBuilder and BodyLanguage model FoxedUp or BRILLIANT.MOD
:root
   order TX TY TZ RX RY RZ
   axis XYZ
   position 0 0 0  
   orientation 0 0 0 
:bonedata
  begin
     id 1 
     name lhipjoint
     direction 0.621036 -0.695554 0.361275 
     length 2.46325 
     axis 0 0 0  XYZ
  end
  begin
     id 2 
     name lfemur
     direction 0.34202 -0.939693 0  
     length 6.54784  
     axis 0 0 20  XYZ
    dof rx ry rz
    limits (-160.0 20.0)
           (-70.0 70.0)
           (-60.0 70.0)
  end
  begin
     id 3 
     name ltibia
     direction 0.34202 -0.939693 0   
     length 7.84737   
     axis 0 0 20   XYZ
    dof rx
    limits (-10.0 170.0)
  end
  begin
     id 4 
     name lfoot
     direction 0.0790693 -0.217241 0.97291   
     length 2.59747   
     axis -90 7.62852e-016 20   XYZ
    dof rx rz
    limits (-45.0 90.0)
           (-70.0 20.0)
  end
  begin
     id 5 
     name ltoes
     direction 1.53572e-011 -4.21898e-011 1   
     length 1.29919   
     axis -90 7.62852e-016 20   XYZ
    dof rx
    limits (-90.0 20.0)
  end
  begin
     id 6 
     name rhipjoint
     direction -0.602353 -0.708375 0.367935   
     length 2.41867  
     axis 0 0 0  XYZ 
  end
  begin
     id 7 
     name rfemur
     direction -0.34202 -0.939693 0   
     length 6.92065   
     axis 0 0 -20   XYZ
    dof rx ry rz
    limits (-160.0 20.0)
           (-70.0 70.0)
           (-70.0 60.0)
  end
  begin
     id 8 
     name rtibia
     direction -0.34202 -0.939693 0   
     length 7.88883   
     axis 0 0 -20   XYZ
    dof rx
    limits (-10.0 170.0)
 end
 begin
     id 9 
     name rfoot
     direction -0.0768692 -0.211196 0.974416   
     length 2.43714  
     axis -90 -7.62852e-016 -20   XYZ
    dof rx rz
    limits (-45.0 90.0)
           (-20.0 70.0)
  end
  begin
     id 10 
     name rtoes
     direction -1.53575e-011 -4.21933e-011 1   
     length 1.22113   
     axis -90 -7.62852e-016 -20   XYZ
    dof rx
    limits (-90.0 20.0)
  end
  begin
     id 11 
     name lowerback
     direction 0.0197937 0.98943 -0.143655   
     length 2.16931   
     axis 0 0 0   XYZ
    dof rx ry rz
    limits (-20.0 45.0)
           (-30.0 30.0)
           (-30.0 30.0)
  end
  begin
     id 12 
     name upperback
     direction -0.00183968 0.999975 0.00684288   
     length 2.17221   
     axis 0 0 0   XYZ
    dof rx ry rz
    limits (-20.0 45.0)
           (-30.0 30.0)
           (-30.0 30.0)
  end
  begin
     id 13 
     name thorax
     direction -0.00950244 0.997208 0.0740685   
     length 2.22549   
     axis 0 0 0   XYZ
    dof rx ry rz
    limits (-20.0 45.0)
           (-30.0 30.0)
           (-30.0 30.0)
  end
  begin
     id 14 
     name lowerneck
     direction 0.0218238 0.996215 0.0841425   
     length 1.77269   
     axis 0 0 0   XYZ
    dof rx ry rz
    limits (-20.0 45.0)
           (-30.0 30.0)
           (-30.0 30.0)
  end
  begin
     id 15 
     name upperneck
     direction -0.00430652 0.994214 -0.107332   
     length 1.76534   
     axis 0 0 0   XYZ
    dof rx ry rz
    limits (-20.0 45.0)
           (-30.0 30.0)
           (-30.0 30.0)
  end
  begin
     id 16
     name head
     direction -0.00328946 0.998959 -0.0454998  
     length 1.82634  
     axis 0 0 0   XYZ
    dof rx ry rz
    limits (-20.0 45.0)
           (-30.0 30.0)
           (-30.0 30.0)
  end
  begin
     id 17 
     name lclavicle
     direction 0.970962 0.239191 0.00450212  
     length 3.84872  
     axis 0 0 0   XYZ
    dof ry rz
    limits (-20.0 10.0)
           (0.0 20.0)
  end
  begin
     id 18 
     name lhumerus
     direction 1 -4.48966e-011 5.74696e-028   
     length 5.22771   
     axis 180 -30 -90   XYZ
    dof rx ry rz
    limits (-60.0 90.0)
           (-90.0 90.0)
           (-90.0 90.0)
  end
  begin
     id 19
     name lradius
     direction 1 -4.4896e-011 4.25109e-027   
     length 3.45251   
     axis 180 -30 -90   XYZ
    dof rx
    limits (-10.0 170.0)
  end
  begin
     id 20
     name lwrist
     direction 1 -4.48971e-011 1.15382e-027   
     length 1.72626   
     axis -5.52449e-016 90 90   XYZ
    dof ry
    limits (-180.0 0.0)
 end
  begin
     id 21 
     name lhand
     direction 1 -4.49034e-011 2.30765e-027   
     length 0.552119   
     axis -1.47248e-015 90 90   XYZ
    dof rx rz
    limits (-90.0 90.0)
           (-45.0 45.0)
  end
  begin
     id 22 
     name lfingers
     direction 1 -4.48951e-011 4.61529e-027   
     length 0.445133   
     axis -2.94495e-015 90 90   XYZ
    dof rx
    limits (0.0 90.0)
  end
  begin
     id 23
     name lthumb
     direction 0.707107 -6.34991e-011 0.707107   
     length 0.639124   
     axis -90 45 2.85299e-015   XYZ
    dof rx rz
    limits (-45.0 45.0)
           (-45.0 45.0)
  end
  begin
     id 24 
     name rclavicle
     direction -0.97424 0.222511 -0.0366699   
     length 3.73439  
     axis 0 0 0   XYZ 
    dof ry rz
    limits (-10.0 20.0)
           (-20.0 0.0)
  end
  begin
     id 25 
     name rhumerus
     direction -1 -4.48956e-011 -4.97258e-028  
     length 5.2398   
     axis 180 30 90   XYZ
    dof rx ry rz
    limits (-90.0 60.0)
           (-90.0 90.0)
           (-90.0 90.0)
  end
  begin
     id 26 
     name rradius
     direction -1 -4.4897e-011 -1.72611e-027   
     length 3.48042   
     axis 180 30 90   XYZ
    dof rx
    limits (-10.0 170.0)
  end
  begin
     id 27 
     name rwrist
     direction -1 -4.48976e-011 1.15382e-027   
     length 1.74021   
     axis -5.52449e-016 -90 -90   XYZ
    dof ry
    limits (-180.0 0.0)
  end
  begin
     id 28
     name rhand
     direction -1 -4.48963e-011 2.30765e-027   
     length 0.618713   
     axis -1.47248e-015 -90 -90   XYZ
    dof rx rz
    limits (-90.0 90.0)
           (-45.0 45.0)
  end
  begin
     id 29
     name rfingers
     direction -1 -4.4888e-011 4.61529e-027   
     length 0.498823   
     axis -2.94495e-015 -90 -90   XYZ
    dof rx
    limits (0.0 90.0)
  end
  begin
     id 30
     name rthumb
     direction -0.707107 -6.34968e-011 0.707107   
     length 0.716213   
     axis -90 -45 -2.85299e-015   XYZ
    dof rx rz
    limits (-45.0 45.0)
           (-45.0 45.0)
  end
:hierarchy
  begin
    root lhipjoint rhipjoint lowerback
    lhipjoint lfemur
    lfemur ltibia
    ltibia lfoot
    lfoot ltoes
    rhipjoint rfemur
    rfemur rtibia
    rtibia rfoot
    rfoot rtoes
    lowerback upperback
    upperback thorax
    thorax lowerneck lclavicle rclavicle
    lowerneck upperneck
    upperneck head
    lclavicle lhumerus
    lhumerus lradius
    lradius lwrist
    lwrist lhand lthumb
    lhand lfingers
    rclavicle rhumerus
    rhumerus rradius
    rradius rwrist
    rwrist rhand rthumb
    rhand rfingers
  end

#!OML:ASF G:\JayActor3\Patient Classification 1\Patient 1\Session 5\male.ASF
:FULLY-SPECIFIED
:DEGREES
199
root -37.8672 18.2998 -5.48986 83.2438 -88.0349 -85.0068
lowerback 0.0320656 -1.12406 2.38641
upperback 0.934969 -1.51795 0.24561
thorax 0.884527 -0.743498 -1.09564
lowerneck -6.91938 0.0041267 1.11792
upperneck 8.226 -0.378739 2.38703
head 3.92366 -0.0577494 0.573491
rclavicle -6.06351e-015 5.71506e-015
rhumerus -34.1775 -9.54737 -83.5994
rradius 26.2076
rwrist 5.19409
rhand -17.899 -6.0188
rfingers 7.12502
rthumb 8.36783 -35.833
lclavicle -6.06351e-015 5.71506e-015
lhumerus -33.2394 6.29196 83.2574
lradius 24.9951
lwrist 17.4264
lhand -17.5656 11.902
lfingers 7.12502
lthumb 8.68958 41.7032
rfemur -7.036 2.00902 22.8646
rtibia 32.1088
rfoot 2.97876 -12.8151
rtoes -1.02129
lfemur 0.441237 7.17367 -17.5176
ltibia 20.1865
lfoot 10.4651 6.28852
ltoes -18.7354
200
root -37.8527 18.2981 -5.47956 83.447 -88.0198 -85.1836
lowerback 0.0558862 -1.13883 2.38766
upperback 0.935449 -1.53709 0.252853
thorax 0.871135 -0.753275 -1.0885
lowerneck -6.84694 0.00948802 1.17375
upperneck 8.14635 -0.37047 2.35438
head 3.88059 -0.0546377 0.552553
rclavicle -2.95013e-015 2.98177e-015
rhumerus -34.1812 -9.52026 -83.6021
rradius 26.2517
rwrist 5.12539
rhand -17.9212 -6.0293
rfingers 7.12502
rthumb 8.34642 -35.8444
lclavicle -2.95013e-015 2.98177e-015
lhumerus -33.2092 6.2951 83.2572
lradius 24.9764
lwrist 17.4346
lhand -17.5623 11.8886
lfingers 7.12502
lthumb 8.69278 41.6896
rfemur -7.18233 2.03893 22.8399
rtibia 32.2176
rfoot 3.00196 -12.8119
rtoes -1.04818
lfemur 0.370072 7.1715 -17.5767
ltibia 20.1904
lfoot 10.3592 6.41929
ltoes -18.5097
201
root -37.8383 18.296 -5.4681 83.4296 -88.0304 -85.1463
lowerback 0.0903892 -1.15468 2.37361
upperback 0.93427 -1.55711 0.249547
thorax 0.850126 -0.76363 -1.08332
lowerneck -6.71126 -0.000685711 1.30317
upperneck 7.99914 -0.380031 2.24622
head 3.80075 -0.0624282 0.492125
rclavicle 9.42616e-015 -2.13694e-015
rhumerus -34.1979 -9.50054 -83.6003
rradius 26.3042
rwrist 5.06402
rhand -17.9318 -6.03991
rfingers 7.12502
rthumb 8.33615 -35.8554
lclavicle 9.42616e-015 -2.13694e-015
lhumerus -33.1965 6.29338 83.2598
lradius 24.9742
lwrist 17.4434
lhand -17.5704 11.8433
lfingers 7.12502
lthumb 8.68494 41.6446
rfemur -7.33041 2.03833 22.7765
rtibia 32.3437
rfoot 3.03303 -12.7784
rtoes -1.09731
lfemur 0.325798 7.17924 -17.6673
ltibia 20.1644
lfoot 10.2531 6.54017
ltoes -18.3052
202
root -37.8241 18.2935 -5.45632 83.6511 -88.0498 -85.3599
lowerback 0.128023 -1.16955 2.34722
upperback 0.940402 -1.57585 0.245411
thorax 0.835207 -0.773327 -1.07209
lowerneck -6.59184 -0.0109422 1.42311
upperneck 7.86517 -0.389788 2.14316
head 3.72915 -0.0701291 0.435447
rclavicle 1.30181e-015 2.48481e-015
rhumerus -34.2115 -9.48477 -83.5944
rradius 26.3577
rwrist 5.02087
rhand -17.9183 -6.0507
rfingers 7.12502
rthumb 8.34919 -35.8657
lclavicle 1.30181e-015 2.48481e-015
lhumerus -33.1913 6.30309 83.2625
lradius 24.9848
lwrist 17.4438
lhand -17.5795 11.7831
lfingers 7.12502
lthumb 8.67612 41.5848
rfemur -7.47473 2.04 22.7033
rtibia 32.4848
rfoot 3.06488 -12.7401
rtoes -1.17893
lfemur 0.309588 7.20543 -17.7646
ltibia 20.1195
lfoot 10.1435 6.64708
ltoes -18.1422
203
root -37.8098 18.2905 -5.44456 84.0307 -88.0776 -85.7404
lowerback 0.173067 -1.18483 2.30474
upperback 0.949569 -1.59496 0.240724
thorax 0.819654 -0.783313 -1.05228
lowerneck -6.52021 -0.0140316 1.49844
upperneck 7.77815 -0.392117 2.08647
head 3.68399 -0.0727572 0.402833
rclavicle -1.45154e-014 -4.17448e-015
rhumerus -34.2231 -9.47377 -83.5861
rradius 26.409
rwrist 4.98976
rhand -17.8911 -6.0667
rfingers 7.12502
rthumb 8.37543 -35.8806
lclavicle -1.45154e-014 -4.17448e-015
lhumerus -33.195 6.32436 83.2631
lradius 25.0067
lwrist 17.4398
lhand -17.5931 11.7214
lfingers 7.12502
lthumb 8.66306 41.5236
rfemur -7.61661 2.05472 22.6245
rtibia 32.639
rfoot 3.0863 -12.7087
rtoes -1.25606
lfemur 0.307895 7.25161 -17.8677
ltibia 20.0712
lfoot 10.029 6.73665
ltoes -18.0442
204
root -37.7952 18.2868 -5.43358 85.148 -88.0867 -86.8627
lowerback 0.225257 -1.19411 2.26649
upperback 0.959143 -1.60605 0.245036
thorax 0.80096 -0.789358 -1.02542
lowerneck -6.48791 -0.00760273 1.53718
upperneck 7.72806 -0.383303 2.06619
head 3.65983 -0.0688037 0.389531
rclavicle 3.18948e-015 8.44835e-016
rhumerus -34.2339 -9.47534 -83.5706
rradius 26.4552
rwrist 4.98055
rhand -17.8525 -6.0653
rfingers 7.12502
rthumb 8.4127 -35.8777
lclavicle 3.18948e-015 8.44835e-016
lhumerus -33.2024 6.34412 83.2653
lradius 25.0351
lwrist 17.4405
lhand -17.605 11.6946
lfingers 7.12502
lthumb 8.65153 41.4973
rfemur -7.76167 2.14541 22.5852
rtibia 32.8036
rfoot 3.06581 -12.7347
rtoes -1.27593
lfemur 0.307489 7.32083 -17.9435
ltibia 20.0307
lfoot 9.90552 6.82312
ltoes -18.0073
205
root -37.7794 18.2826 -5.42269 86.7029 -88.0827 -88.4168
lowerback 0.292876 -1.20187 2.2353
upperback 0.954616 -1.61451 0.252669
thorax 0.75918 -0.79437 -0.998529
lowerneck -6.48977 0.00843965 1.54852
upperneck 7.73017 -0.36429 2.07824
head 3.66091 -0.0585713 0.392499
rclavicle -1.06447e-014 -5.91384e-015
rhumerus -34.2599 -9.48047 -83.5529
rradius 26.4985
rwrist 4.97566
rhand -17.806 -6.06601
rfingers 7.12502
rthumb 8.45754 -35.8767
lclavicle -1.06447e-014 -5.91384e-015
lhumerus -33.2261 6.36253 83.2615
lradius 25.0667
lwrist 17.4437
lhand -17.6139 11.6843
lfingers 7.12502
lthumb 8.64293 41.4874
rfemur -7.92269 2.28427 22.569
rtibia 32.9766
rfoot 3.02165 -12.7998
rtoes -1.2503
lfemur 0.292758 7.40488 -18.0052
ltibia 20.0013
lfoot 9.77489 6.91248
ltoes -18.031
206
root -37.7626 18.2783 -5.41137 88.6087 -88.0702 -90.3158
lowerback 0.354353 -1.21081 2.20767
upperback 0.947115 -1.6247 0.262462
thorax 0.717721 -0.800227 -0.971508
lowerneck -6.43995 0.0182267 1.6041
upperneck 7.69826 -0.351827 2.04528
head 3.63964 -0.0528748 0.37228
rclavicle 5.38388e-015 -1.49089e-015
rhumerus -34.2798 -9.47597 -83.5417
rradius 26.5283
rwrist 4.96266
rhand -17.7732 -6.06559
rfingers 7.12502
rthumb 8.48925 -35.875
lclavicle 5.38388e-015 -1.49089e-015
lhumerus -33.247 6.39625 83.2486
lradius 25.0917
lwrist 17.4412
lhand -17.6137 11.7136
lfingers 7.12502
lthumb 8.64317 41.5166
rfemur -8.09714 2.41773 22.558
rtibia 33.1552
rfoot 2.98639 -12.853
rtoes -1.22346
lfemur 0.26826 7.50006 -18.0624
ltibia 19.9762
lfoot 9.63795 7.00615
ltoes -18.1281
207
root -37.7457 18.2741 -5.40004 90.8908 -88.0439 -92.589
lowerback 0.415795 -1.21557 2.18556
upperback 0.938868 -1.6294 0.276736
thorax 0.675691 -0.803326 -0.942962
lowerneck -6.37323 0.0218157 1.6971
upperneck 7.64521 -0.346585 1.97194
head 3.60749 -0.0516296 0.331725
rclavicle 8.76671e-016 -2.98177e-016
rhumerus -34.2964 -9.4781 -83.5268
rradius 26.5535
rwrist 4.94341
rhand -17.7464 -6.07325
rfingers 7.12502
rthumb 8.51506 -35.8816
lclavicle 8.76671e-016 -2.98177e-016
lhumerus -33.259 6.41956 83.2399
lradius 25.1093
lwrist 17.4436
lhand -17.6079 11.7619
lfingers 7.12502
lthumb 8.64875 41.5648
rfemur -8.28081 2.53747 22.5559
rtibia 33.3353
rfoot 2.97741 -12.888
rtoes -1.23613
lfemur 0.249928 7.60776 -18.1064
ltibia 19.9388
lfoot 9.50293 7.10679
ltoes -18.2571
208
root -37.7287 18.2704 -5.38796 93.3951 -88.0236 -95.083
lowerback 0.464268 -1.21845 2.15601
upperback 0.938881 -1.6321 0.287934
thorax 0.649578 -0.805233 -0.913825
lowerneck -6.31707 0.0263428 1.80416
upperneck 7.58734 -0.340144 1.88428
head 3.57575 -0.049904 0.284121
rclavicle 4.12168e-015 -1.04362e-015
rhumerus -34.2931 -9.48556 -83.5127
rradius 26.5712
rwrist 4.91592
rhand -17.7346 -6.09357
rfingers 7.12502
rthumb 8.52644 -35.9014
lclavicle 4.12168e-015 -1.04362e-015
lhumerus -33.2561 6.44455 83.2341
lradius 25.1246
lwrist 17.4423
lhand -17.5997 11.8052
lfingers 7.12502
lthumb 8.65667 41.6077
rfemur -8.47005 2.60705 22.5299
rtibia 33.5155
rfoot 3.01563 -12.87
rtoes -1.31047
lfemur 0.24757 7.72277 -18.1646
ltibia 19.872
lfoot 9.37565 7.20434
ltoes -18.4536
